<?xml version="1.0" encoding="UTF-8"?>
<svg version="1.1" xmlns="http://www.w3.org/2000/svg" width="225" height="225">
<path d="M0 0 C74.25 0 148.5 0 225 0 C225 74.25 225 148.5 225 225 C150.75 225 76.5 225 0 225 C0 150.75 0 76.5 0 0 Z " fill="#01AEBF" transform="translate(0,0)"/>
<path d="M0 0 C28.05 0 56.1 0 85 0 C85 4.62 85 9.24 85 14 C80.38 14 75.76 14 71 14 C71.08747094 17.66774714 71.19443217 21.33321429 71.3125 25 C71.33505859 26.02996094 71.35761719 27.05992188 71.38085938 28.12109375 C71.69614551 37.12107968 73.39429749 43.79408809 79 51 C81.05473679 52.86176547 83.08422382 54.59678789 85.25 56.3125 C98.97616182 67.63452582 107.76815364 80.61834857 112 98 C112.18949219 98.76828125 112.37898437 99.5365625 112.57421875 100.328125 C115.57818611 119.17870917 111.19481562 137.77160961 100.34375 153.3828125 C98.63945418 155.66811826 96.86294407 157.84248785 95 160 C94.41734375 160.67804688 93.8346875 161.35609375 93.234375 162.0546875 C85.37174822 170.54500298 74.95254287 176.44085342 64 180 C63.14792969 180.29777344 62.29585938 180.59554687 61.41796875 180.90234375 C44.36203344 186.07876048 25.81397989 183.74057176 10.125 175.6875 C4.68678905 172.5618616 -0.27301541 169.11976325 -5 165 C-5.59039062 164.50371094 -6.18078125 164.00742188 -6.7890625 163.49609375 C-15.17073833 155.86073152 -21.61190596 144.76318765 -25 134 C-25.29648437 133.13761719 -25.59296875 132.27523437 -25.8984375 131.38671875 C-31.48490748 112.85911417 -27.81583452 94.00907336 -18.91015625 77.21875 C-13.04751775 67.33978452 -5.09423195 59.33628042 4.25 52.6875 C14.11724195 43.04451354 13.81669961 31.85219981 13.9921875 18.828125 C13.99476562 17.23484375 13.99734375 15.6415625 14 14 C9.38 14 4.76 14 0 14 C0 9.38 0 4.76 0 0 Z " fill="#FBFDFD" transform="translate(70,28)"/>
<path d="M0 0 C9.57 0 19.14 0 29 0 C29.1875 12.75 29.1875 12.75 29.20776367 16.69042969 C29.54391125 29.43899506 33.9113003 40.18344417 43.13671875 49.0546875 C45.98625617 51.61878738 48.87366728 54.11385832 51.88671875 56.484375 C60.57918342 63.43834673 65.30881731 72.66180473 69 83 C69.2475 83.68707031 69.495 84.37414062 69.75 85.08203125 C72.88597361 95.42638863 70.92568547 105.88200443 68 116 C62.39 116 56.78 116 51 116 C50.67 100.82 50.34 85.64 50 70 C46.679375 73.3 43.35875 76.6 39.9375 80 C38.90488037 81.02351563 37.87226074 82.04703125 36.80834961 83.1015625 C31.65698312 88.23752508 26.71679516 93.46416322 22 99 C20.07650847 101.2149385 18.23212527 103.06549143 16 105 C12.43690203 104.75624682 10.67320212 103.05301329 8.25 100.5625 C7.63640625 99.94503906 7.0228125 99.32757813 6.390625 98.69140625 C5 97 5 97 5 95 C4.34 95 3.68 95 3 95 C3 94.34 3 93.68 3 93 C2.34 93 1.68 93 1 93 C1 92.34 1 91.68 1 91 C0.34 91 -0.32 91 -1 91 C-1 90.34 -1 89.68 -1 89 C-1.99 88.67 -2.98 88.34 -4 88 C-4 87.34 -4 86.68 -4 86 C-4.66 86 -5.32 86 -6 86 C-6 85.34 -6 84.68 -6 84 C-6.66 84 -7.32 84 -8 84 C-9.55078125 82.42578125 -9.55078125 82.42578125 -11.3125 80.3125 C-14.08625977 77.04652816 -16.92661741 73.98298899 -20 71 C-20.495 70.505 -20.495 70.505 -21 70 C-21.33 85.18 -21.66 100.36 -22 116 C-27.61 116 -33.22 116 -39 116 C-43.6062546 100.07003617 -43.00825024 85.86348234 -35.015625 71.1875 C-29.98686214 62.62790364 -23.53165637 56.40174432 -15.80078125 50.25 C-7.81276789 43.67700615 -1.76010564 34.28747778 -0.66918945 23.82836914 C-0.48334048 20.21647835 -0.379846 16.61619695 -0.3125 13 C-0.209375 8.71 -0.10625 4.42 0 0 Z " fill="#04AEBF" transform="translate(98,42)"/>
<path d="M0 0 C34.32 0 68.64 0 104 0 C104 33.99 104 67.98 104 103 C103.67 103 103.34 103 103 103 C102.82984375 101.92363281 102.6596875 100.84726563 102.484375 99.73828125 C97.58950869 69.80071395 84.41801433 41.62689034 59.38671875 23.26171875 C41.47064033 10.7253865 21.81731467 2.89148617 0 1 C0 0.67 0 0.34 0 0 Z " fill="#FCFEFE" transform="translate(121,0)"/>
<path d="M0 0 C34.32 0 68.64 0 104 0 C104 0.33 104 0.66 104 1 C102.80246094 1.15855469 101.60492188 1.31710938 100.37109375 1.48046875 C69.64454847 5.78021768 43.61577443 19.51578871 23.84765625 43.625 C22.1065697 46.02540958 20.53507882 48.46312036 19 51 C18.34644531 52.04414062 17.69289063 53.08828125 17.01953125 54.1640625 C7.85011366 69.19716641 2.75380943 85.46190575 1 103 C0.67 103 0.34 103 0 103 C0 69.01 0 35.02 0 0 Z " fill="#FDFEFE" transform="translate(0,0)"/>
<path d="M0 0 C0.33 0 0.66 0 1 0 C1 34.98 1 69.96 1 106 C-33.32 106 -67.64 106 -103 106 C-103 105.67 -103 105.34 -103 105 C-101.83726563 104.85304688 -100.67453125 104.70609375 -99.4765625 104.5546875 C-76.47465679 101.42621507 -57.05937721 93.66656522 -39 79 C-38.27296875 78.42636719 -37.5459375 77.85273438 -36.796875 77.26171875 C-22.34702828 65.34343966 -12.59308224 48.28410427 -6 31 C-5.73566162 30.31510498 -5.47132324 29.63020996 -5.19897461 28.92456055 C-3.00570018 22.85656917 -2.08612788 16.82521432 -1.3125 10.4375 C-1.11817383 8.92446289 -1.11817383 8.92446289 -0.91992188 7.38085938 C-0.60521374 4.92147358 -0.29874531 2.4613668 0 0 Z " fill="#FCFEFE" transform="translate(224,119)"/>
<path d="M0 0 C0.33 0 0.66 0 1 0 C1.06469482 0.5576001 1.12938965 1.1152002 1.19604492 1.68969727 C3.85382117 23.89866873 10.03608793 44.15722347 24 62 C24.75023438 62.97582031 25.50046875 63.95164063 26.2734375 64.95703125 C44.49726753 87.80867932 72.15856982 101.69113729 101 105 C101 105.33 101 105.66 101 106 C67.67 106 34.34 106 0 106 C0 71.02 0 36.04 0 0 Z " fill="#FDFEFE" transform="translate(0,119)"/>
<path d="M0 0 C7.88877722 6.76180905 7.88877722 6.76180905 10.421875 9.2890625 C11.24751953 10.11277344 11.24751953 10.11277344 12.08984375 10.953125 C12.63769531 11.50484375 13.18554688 12.0565625 13.75 12.625 C14.31332031 13.18445313 14.87664062 13.74390625 15.45703125 14.3203125 C18.20660543 17.07638685 20.77496318 19.78779896 23 23 C26.95388958 22.45105157 28.75451134 20.60713594 31.51171875 17.81640625 C32.35154297 16.97142578 33.19136719 16.12644531 34.05664062 15.25585938 C34.92482422 14.36705078 35.79300781 13.47824219 36.6875 12.5625 C38.00717773 11.23508789 38.00717773 11.23508789 39.35351562 9.88085938 C43.67237692 5.81251702 43.67237692 5.81251702 47 1 C47.66 1 48.32 1 49 1 C49 10.57 49 20.14 49 30 C56.59 30 64.18 30 72 30 C64.41421159 43.27512971 53.49991555 50.85648243 39.0625 55.5 C23.31639987 59.47183019 9.44274029 56.56889721 -4.625 49.0234375 C-12.25295409 44.4501965 -18.29582881 38.5266739 -23 31 C-23 30.67 -23 30.34 -23 30 C-15.41 30 -7.82 30 0 30 C0 20.1 0 10.2 0 0 Z " fill="#4C4C4C" transform="translate(88,140)"/>
<path d="M0 0 C3.04739688 1.31592138 4.6866919 2.64491749 6.875 5.125 C8.50942687 9.30186866 8.36425243 12.73767461 7 17 C4.32543417 20.27634314 2.87850772 21.63024101 -1.22265625 22.4375 C-5.31359542 22.65604767 -7.47299216 22.3293799 -11 20.125 C-14.29094781 16.62836795 -14.38940651 13.9830084 -14.359375 9.328125 C-13.75455722 5.40995764 -11.83123243 3.69641184 -9 1 C-5.93570224 -0.53214888 -3.3834358 -0.22938548 0 0 Z " fill="#F9FCFD" transform="translate(127,90)"/>
<path d="M0 0 C2.3125 1.5625 2.3125 1.5625 4 4 C4.42519574 7.46230815 4.63902633 9.8347167 2.9375 12.9375 C-0.20334326 14.65989792 -2.49818786 14.49148241 -6 14 C-8.5 11.875 -8.5 11.875 -10 9 C-10 5.43909099 -9.69349238 3.74302755 -7.25 1.125 C-4.50272993 -0.24863504 -3.03212094 -0.53062116 0 0 Z " fill="#F5FBFC" transform="translate(115,65)"/>
<path d="M0 0 C1.9375 1.0625 1.9375 1.0625 3 3 C3.5 6.4375 3.5 6.4375 3 10 C0.8125 12.5 0.8125 12.5 -2 14 C-5.31195977 14 -6.67765762 13.24393477 -9.3125 11.25 C-11 9 -11 9 -11.5 6.5 C-10.21591544 0.07957718 -5.93091193 -0.75484334 0 0 Z " fill="#F6FBFC" transform="translate(95,99)"/>
</svg>
