<?xml version="1.0" encoding="UTF-8"?>
<svg version="1.1" xmlns="http://www.w3.org/2000/svg" width="200" height="200">
<path d="M0 0 C66 0 132 0 200 0 C200 66 200 132 200 200 C134 200 68 200 0 200 C0 134 0 68 0 0 Z " fill="#F26822" transform="translate(0,0)"/>
<path d="M0 0 C4.83455188 2.14868972 7.10114361 4.92827166 9.12304688 9.67431641 C12.83072048 19.50708333 12.23333675 29.79465919 12.125 40.125 C12.08375 45.69375 12.0425 51.2625 12 57 C32.13 57 52.26 57 73 57 C73 77.13 73 97.26 73 118 C7 118 -59 118 -127 118 C-127 97.87 -127 77.74 -127 57 C-105.88 57 -84.76 57 -63 57 C-63.19723415 44.19574879 -63.19723415 44.19574879 -63.45043945 31.39257812 C-63.46505996 29.77215228 -63.47779692 28.15170789 -63.48828125 26.53125 C-63.526651 25.29713379 -63.526651 25.29713379 -63.5657959 24.03808594 C-63.57035805 17.91385609 -61.99384659 13.695701 -58 9 C-53.72520667 6.15013778 -50.01365487 6.14790691 -45 7 C-40.63156248 9.20448053 -37.97877308 12.3869178 -36.125 16.875 C-33.67498434 24.84130858 -33.90617472 32.74337493 -34 41 C-29.38 41 -24.76 41 -20 41 C-20.02320312 39.44410156 -20.04640625 37.88820312 -20.0703125 36.28515625 C-20.08908367 34.21094233 -20.10728241 32.13672318 -20.125 30.0625 C-20.14175781 29.04091797 -20.15851563 28.01933594 -20.17578125 26.96679688 C-20.23293575 18.02211686 -19.81485154 10.1830519 -14 3 C-9.64373325 -0.9001619 -5.60962674 -0.77221128 0 0 Z " fill="#4D4D4D" transform="translate(127,82)"/>
<path d="M0 0 C7.95171138 6.37339438 12.93837691 15.6354361 14.75390625 25.59375 C15.25820309 30.61199797 15.52442841 35.5452376 15.75390625 40.59375 C23.67390625 40.59375 31.59390625 40.59375 39.75390625 40.59375 C39.75390625 45.54375 39.75390625 50.49375 39.75390625 55.59375 C28.36890625 56.08875 28.36890625 56.08875 16.75390625 56.59375 C16.42390625 60.22375 16.09390625 63.85375 15.75390625 67.59375 C30.27390625 67.59375 44.79390625 67.59375 59.75390625 67.59375 C59.75390625 72.54375 59.75390625 77.49375 59.75390625 82.59375 C39.62390625 82.59375 19.49390625 82.59375 -1.24609375 82.59375 C-1.55859375 65.84375 -1.55859375 65.84375 -1.6340332 60.63769531 C-1.84880658 50.13067106 -2.22451005 38.62612555 -8.24609375 29.59375 C-12.0301901 26.15366241 -15.96532707 26.07491508 -20.875 26.25 C-24.40123297 26.76121664 -25.95673724 27.88814685 -28.24609375 30.59375 C-32.4012015 38.60717209 -32.47684336 46.63657555 -32.80859375 55.46875 C-32.87336914 57.07363281 -32.87336914 57.07363281 -32.93945312 58.7109375 C-33.04502118 61.33840903 -33.1460117 63.96606378 -33.24609375 66.59375 C-37.86609375 66.59375 -42.48609375 66.59375 -47.24609375 66.59375 C-47.41044922 64.56734375 -47.41044922 64.56734375 -47.578125 62.5 C-47.73768911 60.69786414 -47.89787868 58.89578358 -48.05859375 57.09375 C-48.12884766 56.206875 -48.19910156 55.32 -48.27148438 54.40625 C-48.92724093 47.27161864 -50.02571721 41.19321521 -54.80859375 35.59375 C-59.37568795 32.93653155 -63.07712236 32.50645385 -68.24609375 33.59375 C-71.67250468 36.16355819 -73.57599592 38.70089861 -75.24609375 42.59375 C-75.56707203 44.60798125 -75.56707203 44.60798125 -75.56494141 46.71972656 C-75.58500244 47.53135254 -75.60506348 48.34297852 -75.62573242 49.17919922 C-75.63709229 50.02240723 -75.64845215 50.86561523 -75.66015625 51.734375 C-75.67780029 52.5166748 -75.69544434 53.29897461 -75.71362305 54.10498047 C-75.776526 57.01769739 -75.82282595 59.9307538 -75.87109375 62.84375 C-75.99484375 69.36125 -76.11859375 75.87875 -76.24609375 82.59375 C-97.36609375 82.59375 -118.48609375 82.59375 -140.24609375 82.59375 C-140.24609375 77.64375 -140.24609375 72.69375 -140.24609375 67.59375 C-125.06609375 67.59375 -109.88609375 67.59375 -94.24609375 67.59375 C-94.24609375 63.63375 -94.24609375 59.67375 -94.24609375 55.59375 C-101.83609375 55.59375 -109.42609375 55.59375 -117.24609375 55.59375 C-117.24609375 50.64375 -117.24609375 45.69375 -117.24609375 40.59375 C-109.32609375 40.59375 -101.40609375 40.59375 -93.24609375 40.59375 C-93.24609375 37.62375 -93.24609375 34.65375 -93.24609375 31.59375 C-91.98952818 23.31584872 -88.7870815 14.39978019 -82.21875 8.89453125 C-74.98747767 4.19487754 -67.76794349 3.70460038 -59.24609375 4.59375 C-53.5162989 6.60963403 -49.23193489 10.09360678 -45.24609375 14.59375 C-45.02695313 14.02527344 -44.8078125 13.45679687 -44.58203125 12.87109375 C-41.82493475 6.15767584 -38.63111376 -0.18076004 -31.74609375 -3.34375 C-21.88056626 -6.38074795 -8.83470258 -5.53129205 0 0 Z " fill="#FDFCFB" transform="translate(140.24609375,56.40625)"/>
</svg>
