<?xml version="1.0" encoding="UTF-8"?>
<svg version="1.1" xmlns="http://www.w3.org/2000/svg" width="200" height="200">
<path d="M0 0 C66 0 132 0 200 0 C200 66 200 132 200 200 C134 200 68 200 0 200 C0 134 0 68 0 0 Z " fill="#59B3E1" transform="translate(0,0)"/>
<path d="M0 0 C66 0 132 0 200 0 C200 66 200 132 200 200 C134 200 68 200 0 200 C0 134 0 68 0 0 Z M69 12 C68.01515625 12.38542969 67.0303125 12.77085938 66.015625 13.16796875 C56.91308975 17.05289056 47.30283992 22.22753393 40 29 C40 29.66 40 30.32 40 31 C39.42894531 31.23847656 38.85789062 31.47695313 38.26953125 31.72265625 C24.11451673 39.68942001 14.21126602 62.0117214 10 77 C4.50012809 101.2815612 7.80894176 124.53100788 20 146 C20.45632812 146.81082031 20.91265625 147.62164062 21.3828125 148.45703125 C32.61097165 167.30695405 49.37443508 180.73907505 70 188 C71.16144531 188.4125 72.32289062 188.825 73.51953125 189.25 C96.74844757 196.25516011 122.41146706 192.35666107 144 182 C147.1274748 180.15945194 150.06396683 178.12918436 153 176 C153.69609375 175.53078125 154.3921875 175.0615625 155.109375 174.578125 C156.77971176 173.44229601 158.39641873 172.22827501 160 171 C160 170.34 160 169.68 160 169 C160.58007812 168.75507813 161.16015625 168.51015625 161.7578125 168.2578125 C168.11050157 164.69410888 176.55850182 154.87038735 178.66015625 147.76953125 C178.82837891 146.89361328 178.82837891 146.89361328 179 146 C179.66 146 180.32 146 181 146 C181.69656802 144.36306515 182.39183125 142.72556754 183.08203125 141.0859375 C183.66523599 139.76069778 184.28424783 138.45022025 184.94921875 137.1640625 C190.84709454 125.36831091 192.35488201 112.51332283 192.375 99.5 C192.37661133 98.50991943 192.37822266 97.51983887 192.37988281 96.49975586 C192.05733003 75.17005703 183.25602421 56.39112506 170 40 C168.90558594 38.58654297 168.90558594 38.58654297 167.7890625 37.14453125 C164.79535046 33.57354388 161.30285274 30.87614987 157.5625 28.125 C156.50905396 27.34672852 156.50905396 27.34672852 155.43432617 26.55273438 C145.02360592 18.98641557 134.66218886 13.00206825 122 10 C121.29576904 9.82484863 120.59153809 9.64969727 119.8659668 9.46923828 C103.81260431 5.8096919 84.40680861 5.93603815 69 12 Z " fill="#080B0D" transform="translate(0,0)"/>
<path d="M0 0 C5.41340042 0.13802217 9.39977542 2.68324594 13.96875 5.37109375 C19.86874263 8.81354531 24.52921599 11.41953188 31.46875 11.43359375 C35.17768101 10.36996296 35.17768101 10.36996296 38.65625 8.62109375 C39.82542969 8.07839844 40.99460938 7.53570312 42.19921875 6.9765625 C43.27816406 6.46738281 44.35710937 5.95820312 45.46875 5.43359375 C49.90593826 3.49677727 53.65045179 2.36612524 58.46875 3.43359375 C65.82940826 9.62323819 68.47305507 21.1659717 69.46875 30.43359375 C69.6169065 35.4412833 69.58896913 40.42446331 69.46875 45.43359375 C68.73052002 45.53381836 67.99229004 45.63404297 67.23168945 45.73730469 C63.74740188 46.21372382 60.26421073 46.69756801 56.78125 47.18359375 C55.50209717 47.36116211 54.22294434 47.53873047 52.9050293 47.72167969 C46.29854983 48.66174516 39.77564418 49.72567392 33.25634766 51.1472168 C24.60180979 53.02273659 16.26880334 53.82113795 7.40625 53.87109375 C6.3953833 53.88108398 5.3845166 53.89107422 4.34301758 53.90136719 C-13.2659954 53.69884835 -13.2659954 53.69884835 -17.53125 49.43359375 C-18.54292167 33.49976492 -15.11269706 15.43698619 -5.53125 2.43359375 C-3.53125 0.43359375 -3.53125 0.43359375 0 0 Z " fill="#020303" transform="translate(72.53125,37.56640625)"/>
<path d="M0 0 C30.03 0 60.06 0 91 0 C91 29.04 91 58.08 91 88 C90.67 88 90.34 88 90 88 C89.79246094 86.88625 89.58492188 85.7725 89.37109375 84.625 C85.16450401 63.29780188 76.18012414 45.69085728 61 30 C60.48566406 29.40058594 59.97132813 28.80117188 59.44140625 28.18359375 C53.99916726 22.09111322 46.76146712 18.20991926 39.8046875 14.08349609 C38.38162938 13.22912218 36.98274231 12.33448888 35.59375 11.42578125 C25.41976874 5.02667002 11.72207585 2.72990987 0 1 C0 0.67 0 0.34 0 0 Z " fill="#FBFBFB" transform="translate(109,0)"/>
<path d="M0 0 C0.33 0 0.66 0 1 0 C1 30.03 1 60.06 1 91 C-28.04 91 -57.08 91 -87 91 C-83.77788097 89.38894048 -81.23257485 88.51856959 -77.7722168 87.75854492 C-53.28063595 82.35638167 -30.57236553 68.25323971 -16.72460938 47.046875 C-8.70781638 34.01800827 -3.53540181 21.10962427 -1 6 C-0.80921875 4.86304687 -0.6184375 3.72609375 -0.421875 2.5546875 C-0.28265625 1.71164063 -0.1434375 0.86859375 0 0 Z " fill="#FAFAFA" transform="translate(199,109)"/>
<path d="M0 0 C29.04 0 58.08 0 88 0 C88 0.33 88 0.66 88 1 C87.05382812 1.13535156 86.10765625 1.27070313 85.1328125 1.41015625 C64.08569144 4.71594447 47.41879099 13.2073528 32 28 C31.28972656 28.65871094 30.57945313 29.31742188 29.84765625 29.99609375 C24.76589192 34.84376529 20.81760537 40.11980216 17 46 C16.49726563 46.73476563 15.99453125 47.46953125 15.4765625 48.2265625 C6.80919619 61.57155508 2.93797364 76.38546952 1 92 C0.67 92 0.34 92 0 92 C0 61.64 0 31.28 0 0 Z " fill="#FBFBFB" transform="translate(0,0)"/>
<path d="M0 0 C0.33 0 0.66 0 1 0 C1.18175781 1.02738281 1.36351563 2.05476563 1.55078125 3.11328125 C2.20273822 6.74636757 2.89399997 10.37069155 3.60742188 13.9921875 C3.92313724 15.60689098 4.22209131 17.22486721 4.515625 18.84375 C7.66114381 33.04352062 16.34387359 46.37826095 26 57 C26.55945313 57.69996094 27.11890625 58.39992187 27.6953125 59.12109375 C43.05056497 78.14825442 66.76317975 86.24424587 90 90 C90 90.33 90 90.66 90 91 C60.3 91 30.6 91 0 91 C0 60.97 0 30.94 0 0 Z " fill="#FBFBFB" transform="translate(0,109)"/>
<path d="M0 0 C2.48018753 2.48018753 2.32361558 3.38515951 2.375 6.8125 C2.30207786 10.41693714 2.08294307 11.85484963 0.25 15.0625 C-1.94834492 16.95551924 -3.14973668 17.69461464 -6 18 C-6 18.66 -6 19.32 -6 20 C-13.03813325 22.34604442 -23.17005509 22.15412989 -30.1875 19.625 C-35.33220259 16.92452393 -36.88667963 12.18104349 -39 7 C-42.63 7 -46.26 7 -50 7 C-50.33 8.381875 -50.66 9.76375 -51 11.1875 C-52.55038084 15.86068584 -54.53830653 17.67103298 -58.76953125 20.02734375 C-63.95644454 22.28923764 -68.31812458 23.29380962 -74 23.3125 C-75.175625 23.32925781 -76.35125 23.34601563 -77.5625 23.36328125 C-82.45942922 22.84576487 -85.73113445 21.13530075 -89.375 17.875 C-91.63116517 13.88332315 -92.07876649 10.47728648 -91 6 C-88.9238466 3.07545169 -86.34256795 1.385344 -82.86328125 0.38671875 C-78.86031725 -0.15392714 -74.91042687 -0.19066659 -70.875 -0.1875 C-69.59749878 -0.1884668 -69.59749878 -0.1884668 -68.29418945 -0.18945312 C-62.90704567 -0.14430803 -57.94446292 0.40922223 -52.671875 1.5390625 C-44.0712084 3.02280323 -36.08612705 2.79381187 -28.18359375 -1.02734375 C-19.79587413 -4.76355517 -7.90740697 -4.67255866 0 0 Z " fill="#050709" transform="translate(143,112)"/>
<path d="M0 0 C-0.7421875 3.78125 -0.7421875 3.78125 -3.0625 5.75 C-3.701875 6.1625 -4.34125 6.575 -5 7 C-5 6.34 -5 5.68 -5 5 C-6.06927734 5.12568359 -6.06927734 5.12568359 -7.16015625 5.25390625 C-12.69019573 5.84189161 -17.54028471 6.09194306 -23 5 C-22.01 7.475 -22.01 7.475 -21 10 C-24.89961634 12.66870296 -28.93767406 12.06196559 -33.4375 11.875 C-40.60119182 11.70783031 -46.50225011 12.54787945 -53.30078125 15.02734375 C-63.5917427 18.73566416 -74.43784553 17.43664114 -84.80078125 14.734375 C-89.81967099 13.58229775 -94.86805442 13.26815571 -100 13 C-101 8.125 -101 8.125 -101 7 C-101.73605469 6.95101562 -102.47210938 6.90203125 -103.23046875 6.8515625 C-104.20628906 6.77679688 -105.18210937 6.70203125 -106.1875 6.625 C-107.15042969 6.55539063 -108.11335938 6.48578125 -109.10546875 6.4140625 C-112.01508938 5.99784147 -114.32890774 5.20125904 -117 4 C-117 4.66 -117 5.32 -117 6 C-120.63 6.33 -124.26 6.66 -128 7 C-127.67 5.35 -127.34 3.7 -127 2 C-127.66 1.67 -128.32 1.34 -129 1 C-128.06933716 1.10501831 -128.06933716 1.10501831 -127.11987305 1.2121582 C-116.69491928 2.24181698 -106.27681714 2.19539396 -95.8125 2.1875 C-94.82503784 2.1882251 -93.83757568 2.1889502 -92.82019043 2.18969727 C-81.16617238 2.18875404 -69.68213304 1.9518115 -58.08544922 0.71606445 C-38.85807336 -1.09251568 -19.29045372 -0.15695883 0 0 Z " fill="#82CDEE" transform="translate(165,98)"/>
<path d="M0 0 C0.125 2.875 0.125 2.875 0 6 C-2.99863996 8.99863996 -6.35962071 8.31768191 -10.3828125 8.34375 C-11.65341019 8.3656842 -11.65341019 8.3656842 -12.94967651 8.38806152 C-15.67473518 8.43464426 -18.39972568 8.46869715 -21.125 8.5 C-32.24885785 8.63134437 -43.10503458 8.98085293 -54.12963867 10.50683594 C-67.47537143 12.20735825 -80.98851027 12.21283981 -94.42211914 12.24023438 C-97.32661464 12.25004769 -100.23043152 12.28125748 -103.13476562 12.3125 C-128.88357573 12.45833582 -128.88357573 12.45833582 -137 5 C-137.9375 2.3125 -137.9375 2.3125 -138 0 C-136.1652427 -1.8347573 -133.40377299 -1.25961357 -130.93359375 -1.3125 C-121.87653026 -1.24827364 -113.67298302 1.10287811 -105.03442383 3.58203125 C-86.34998146 8.88117612 -70.82334758 6.3955745 -52.125 2.5625 C-48.96665505 1.92691451 -45.80754143 1.29543961 -42.64767456 0.66746521 C-40.69767054 0.27870202 -38.74863436 -0.11496179 -36.80081177 -0.51451111 C-10.45444975 -5.83504172 -10.45444975 -5.83504172 0 0 Z " fill="#05080B" transform="translate(167,89)"/>
<path d="M0 0 C0.33 0 0.66 0 1 0 C1.33 3.63 1.66 7.26 2 11 C9.87925289 13.17739118 17.01775199 14.57959152 25.1875 14.5625 C26.2276123 14.5637085 27.26772461 14.56491699 28.33935547 14.56616211 C41.96243112 14.29727256 55.27423596 11.42241746 68.57275391 8.66430664 C73.87988256 7.63562043 79.02691996 6.86338247 84.4375 6.9375 C85.73494141 6.95103516 85.73494141 6.95103516 87.05859375 6.96484375 C87.69925781 6.97644531 88.33992188 6.98804687 89 7 C89.33 6.01 89.66 5.02 90 4 C93.96 4 97.92 4 102 4 C102.495 4.99 102.495 4.99 103 6 C103.33 5.34 103.66 4.68 104 4 C106.64 4.33 109.28 4.66 112 5 C111.34 6.65 110.68 8.3 110 10 C109.45851318 10.01345459 108.91702637 10.02690918 108.35913086 10.04077148 C89.74026449 10.66538727 71.90815492 14.087665 53.71655273 17.90014648 C37.18300452 21.31518787 23.74347131 22.10391011 7.1875 17.625 C5.93646484 17.30789062 4.68542969 16.99078125 3.39648438 16.6640625 C-5.70338255 14.29661745 -5.70338255 14.29661745 -8 12 C-7.34 12 -6.68 12 -6 12 C-6 9.03 -6 6.06 -6 3 C-4.35 3 -2.7 3 -1 3 C-0.67 2.01 -0.34 1.02 0 0 Z " fill="#7BC0DD" transform="translate(54,76)"/>
<path d="M0 0 C0.90234375 0.30808594 1.8046875 0.61617187 2.734375 0.93359375 C4.50824673 1.57279925 6.25951537 2.27479807 8 3 C8 3.33 8 3.66 8 4 C7.15475266 3.99777939 6.30950531 3.99555878 5.43864441 3.99327087 C-2.52185361 3.97324484 -10.48234319 3.95801403 -18.4428606 3.94818783 C-22.53556708 3.94296629 -26.62825276 3.93588183 -30.72094727 3.92456055 C-34.66963086 3.91370582 -38.61829444 3.90771766 -42.56699181 3.90512276 C-44.07449344 3.90327318 -45.58199395 3.8996615 -47.08948708 3.89426994 C-49.19876103 3.88702523 -51.30795196 3.88601051 -53.41723633 3.88647461 C-55.21926262 3.88314369 -55.21926262 3.88314369 -57.05769348 3.87974548 C-60.06099873 3.86632022 -60.06099873 3.86632022 -63 5 C-63.33 7.31 -63.66 9.62 -64 12 C-64.65226562 11.97679687 -65.30453125 11.95359375 -65.9765625 11.9296875 C-71.08698903 11.82416247 -75.20425033 11.98073698 -80 14 C-79.67 14.99 -79.34 15.98 -79 17 C-81 20 -81 20 -84.125 20.6875 C-85.07375 20.790625 -86.0225 20.89375 -87 21 C-87.33 23.31 -87.66 25.62 -88 28 C-91.465 28.495 -91.465 28.495 -95 29 C-95.33 31.31 -95.66 33.62 -96 36 C-98.31 36 -100.62 36 -103 36 C-101.50997261 31.21949544 -98.85538953 28.25531083 -95.5 24.6875 C-94.75169922 23.86282227 -94.75169922 23.86282227 -93.98828125 23.02148438 C-92.70501929 21.63673119 -91.35677617 20.31280657 -90 19 C-89.34 19 -88.68 19 -88 19 C-88 18.34 -88 17.68 -88 17 C-85.95195205 15.31551086 -83.91534609 13.77124547 -81.75 12.25 C-81.11320312 11.80188965 -80.47640625 11.3537793 -79.8203125 10.89208984 C-69.82256233 3.99374181 -59.77140965 -0.04197825 -48 -3 C-47.40026367 -3.1757959 -46.80052734 -3.3515918 -46.18261719 -3.53271484 C-31.59989248 -6.65478812 -13.99945472 -4.90684405 0 0 Z " fill="#3CA1DA" transform="translate(128,12)"/>
<path d="M0 0 C12.54 0 25.08 0 38 0 C38.495 0.99 38.495 0.99 39 2 C42.96 2 46.92 2 51 2 C51 1.34 51 0.68 51 0 C56.61 0 62.22 0 68 0 C68 0.66 68 1.32 68 2 C67.40832031 2.19335938 66.81664062 2.38671875 66.20703125 2.5859375 C61.26387232 4.19999815 61.26387232 4.19999815 56.4375 6.125 C40.77880201 11.74607107 16.54864897 9.8885246 1.5859375 2.8671875 C1.06257813 2.58101562 0.53921875 2.29484375 0 2 C0 1.34 0 0.68 0 0 Z " fill="#42A3DB" transform="translate(66,184)"/>
<path d="M0 0 C1.98 0.33 3.96 0.66 6 1 C6.4375 3.125 6.4375 3.125 6 6 C2.37477603 10.29772929 -1.57090342 12.59221505 -7 14 C-9.69407984 14.21103169 -12.24868527 14.32521909 -14.9375 14.3125 C-15.95360352 14.33666992 -15.95360352 14.33666992 -16.99023438 14.36132812 C-22.12615013 14.3662523 -25.51876099 13.30239097 -30 11 C-31.9375 9.0625 -31.9375 9.0625 -33 7 C-33 5.68 -33 4.36 -33 3 C-30.25 2.3125 -30.25 2.3125 -27 2 C-26.43667969 2.48210937 -25.87335938 2.96421875 -25.29296875 3.4609375 C-22.01043231 5.66420728 -18.87456728 5.39937482 -15.0625 5.3125 C-14.35931641 5.31572266 -13.65613281 5.31894531 -12.93164062 5.32226562 C-8.88017931 5.28049798 -5.57342523 4.96768719 -2 3 C-1.34 2.01 -0.68 1.02 0 0 Z " fill="#0B1418" transform="translate(113,148)"/>
<path d="M0 0 C1.66611905 -0.042721 3.33382885 -0.04063832 5 0 C6 1 6 1 6.09765625 4.37890625 C6.09098369 5.77347077 6.07902532 7.16801743 6.0625 8.5625 C6.05798828 9.27341797 6.05347656 9.98433594 6.04882812 10.71679688 C6.03700864 12.47790013 6.01907263 14.23896036 6 16 C3.36 16 0.72 16 -2 16 C-2 18.31 -2 20.62 -2 23 C-5.75 24.125 -5.75 24.125 -8 23 C-8.495 23.495 -8.495 23.495 -9 24 C-12.5 24.125 -12.5 24.125 -16 24 C-16.33 23.67 -16.66 23.34 -17 23 C-18.33471135 23.32777203 -19.66776991 23.66228433 -21 24 C-22.58211573 24.06548492 -24.16670081 24.08578381 -25.75 24.0625 C-26.54921875 24.05347656 -27.3484375 24.04445312 -28.171875 24.03515625 C-28.77515625 24.02355469 -29.3784375 24.01195312 -30 24 C-30 23.34 -30 22.68 -30 22 C-30.99 22 -31.98 22 -33 22 C-33.33 22.66 -33.66 23.32 -34 24 C-35.65 24 -37.3 24 -39 24 C-38.67 23.01 -38.34 22.02 -38 21 C-39.32 20.67 -40.64 20.34 -42 20 C-42 17.69 -42 15.38 -42 13 C-39.20264131 13.39962267 -38.12684334 13.86892855 -36.125 15.9375 C-31.7236153 20.20943221 -26.5372638 20.22053905 -20.71875 20.17578125 C-19.8628125 20.15902344 -19.006875 20.14226562 -18.125 20.125 C-17.24585938 20.11597656 -16.36671875 20.10695312 -15.4609375 20.09765625 C-13.3071729 20.07424577 -11.15354986 20.0383801 -9 20 C-9 19.34 -9 18.68 -9 18 C-8.071875 17.443125 -7.14375 16.88625 -6.1875 16.3125 C-2.31712436 13.50458042 -1.38424561 11.5372495 0 7 C0.25197243 3.20747213 0.25197243 3.20747213 0 0 Z " fill="#86D0EF" transform="translate(146,112)"/>
<path d="M0 0 C0.33 0 0.66 0 1 0 C1 5.28 1 10.56 1 16 C-1.31 16 -3.62 16 -6 16 C-6.65043638 26.3489074 -7.16494885 36.6265501 -7 47 C-9.64 47.33 -12.28 47.66 -15 48 C-15.88670189 30.85709683 -9.44384545 14.08960814 0 0 Z " fill="#0C81C9" transform="translate(23,49)"/>
<path d="M0 0 C0.66 0 1.32 0 2 0 C2 0.66 2 1.32 2 2 C2.66 2 3.32 2 4 2 C3.51976219 13.54971923 0.70906283 24.47018577 -4 35 C-4.31324219 35.73089844 -4.62648437 36.46179688 -4.94921875 37.21484375 C-5.19285156 37.78332031 -5.43648437 38.35179687 -5.6875 38.9375 C-6.120625 39.948125 -6.55375 40.95875 -7 42 C-7.66 42 -8.32 42 -9 42 C-9.66 43.98 -10.32 45.96 -11 48 C-11.33 48 -11.66 48 -12 48 C-12 42.72 -12 37.44 -12 32 C-9.69 32 -7.38 32 -5 32 C-4.19173412 23.57729653 -4.19173412 23.57729653 -4.0625 15.125 C-4.10984012 11.39865599 -3.51539255 8.45172747 -2 5 C-1.34 4.34 -0.68 3.68 0 3 C0 2.01 0 1.02 0 0 Z " fill="#0E7FC4" transform="translate(188,104)"/>
<path d="M0 0 C9 0 9 0 12 1 C13.1875 3.0625 13.1875 3.0625 14 5 C12.38024307 6.61975693 10.41902321 6.15851735 8.1875 6.25 C4.00352766 6.62573581 4.00352766 6.62573581 0.625 9.0625 C0.08875 10.031875 -0.4475 11.00125 -1 12 C-1.66 13.093125 -2.32 14.18625 -3 15.3125 C-6.14485418 21.76444291 -7.41231268 29.04120024 -9 36 C-9.33 36 -9.66 36 -10 36 C-10 28.08 -10 20.16 -10 12 C-8.68 11.34 -7.36 10.68 -6 10 C-6 9.34 -6 8.68 -6 8 C-4.68 7.34 -3.36 6.68 -2 6 C-2 4.68 -2 3.36 -2 2 C-1.34 2 -0.68 2 0 2 C0 1.34 0 0.68 0 0 Z " fill="#72BFE1" transform="translate(66,32)"/>
<path d="M0 0 C0 0.66 0 1.32 0 2 C-0.99 2 -1.98 2 -3 2 C-3.04125 2.61875 -3.0825 3.2375 -3.125 3.875 C-3.558125 4.926875 -3.558125 4.926875 -4 6 C-7.0625 7.25 -7.0625 7.25 -10 8 C-9.67 8.99 -9.34 9.98 -9 11 C-11 14 -11 14 -14.125 14.6875 C-15.07375 14.790625 -16.0225 14.89375 -17 15 C-17.33 17.31 -17.66 19.62 -18 22 C-20.31 22.33 -22.62 22.66 -25 23 C-25.33 25.31 -25.66 27.62 -26 30 C-28.31 30 -30.62 30 -33 30 C-31.50997261 25.21949544 -28.85538953 22.25531083 -25.5 18.6875 C-24.75169922 17.86282227 -24.75169922 17.86282227 -23.98828125 17.02148438 C-22.70501929 15.63673119 -21.35677617 14.31280657 -20 13 C-19.34 13 -18.68 13 -18 13 C-18 12.34 -18 11.68 -18 11 C-15.74068862 9.22735491 -13.48291055 7.5686573 -11.125 5.9375 C-10.47402344 5.47794922 -9.82304688 5.01839844 -9.15234375 4.54492188 C-2.67866648 0 -2.67866648 0 0 0 Z " fill="#188CD4" transform="translate(58,18)"/>
<path d="M0 0 C2.97 0.495 2.97 0.495 6 1 C6.4375 3.125 6.4375 3.125 6 6 C3.10248909 9.25580527 0.14090732 11.61969756 -4 13 C-6.22818441 13.06937062 -8.45834524 13.08457084 -10.6875 13.0625 C-12.45673828 13.04896484 -12.45673828 13.04896484 -14.26171875 13.03515625 C-15.16535156 13.02355469 -16.06898437 13.01195312 -17 13 C-16.01 12.67 -15.02 12.34 -14 12 C-14 11.34 -14 10.68 -14 10 C-14.99 9.67 -15.98 9.34 -17 9 C-7 5 -7 5 -4.29296875 4.0546875 C-1.68739276 3.0988873 -1.68739276 3.0988873 0 0 Z " fill="#040405" transform="translate(113,148)"/>
<path d="M0 0 C0 0.66 0 1.32 0 2 C-1.65 2.66 -3.3 3.32 -5 4 C-4.34 4.66 -3.68 5.32 -3 6 C-7.95 6 -12.9 6 -18 6 C-17.34 6.66 -16.68 7.32 -16 8 C-17.093125 7.979375 -18.18625 7.95875 -19.3125 7.9375 C-22.94384191 7.81455548 -22.94384191 7.81455548 -26 9 C-26.33 11.31 -26.66 13.62 -27 16 C-29.97 16 -32.94 16 -36 16 C-36 14.68 -36 13.36 -36 12 C-35.01 12 -34.02 12 -33 12 C-32.9896875 11.40445312 -32.979375 10.80890625 -32.96875 10.1953125 C-32 8 -32 8 -28.71875 6.3671875 C-27.31912651 5.85143973 -25.91228568 5.35499045 -24.5 4.875 C-23.77111572 4.61638184 -23.04223145 4.35776367 -22.29125977 4.09130859 C-14.87184122 1.50999503 -7.9168735 -0.33688823 0 0 Z " fill="#2A8CC3" transform="translate(91,8)"/>
<path d="M0 0 C2.64 0 5.28 0 8 0 C8 2.64 8 5.28 8 8 C10.64 8 13.28 8 16 8 C16.33 10.64 16.66 13.28 17 16 C19.64 16 22.28 16 25 16 C24.67 18.64 24.34 21.28 24 24 C18.86143157 21.2954903 14.91638492 18.40225244 10.875 14.25 C10.35583008 13.7250293 9.83666016 13.20005859 9.30175781 12.65917969 C5.52574866 8.75419869 2.58469094 4.80014032 0 0 Z " fill="#177CB6" transform="translate(24,152)"/>
<path d="M0 0 C2.69547371 0.47567183 5.12112172 1.04636829 7.68359375 2.02734375 C11.50013802 3.14668359 15.002419 3.25823466 18.9375 3.1875 C19.95360352 3.1865332 19.95360352 3.1865332 20.99023438 3.18554688 C25.42522028 3.14727758 29.63628547 2.71116599 34 2 C33.67 2.99 33.34 3.98 33 5 C32.96125079 6.66621616 32.9549714 8.33394172 33 10 C32.01 10 31.02 10 30 10 C29.67 9.34 29.34 8.68 29 8 C26.42048126 7.30906104 26.42048126 7.30906104 23.4375 6.875 C22.42558594 6.70742187 21.41367188 6.53984375 20.37109375 6.3671875 C19.58863281 6.24601563 18.80617188 6.12484375 18 6 C17.67 6.99 17.34 7.98 17 9 C16.236875 8.979375 15.47375 8.95875 14.6875 8.9375 C11.89814214 8.87057159 11.89814214 8.87057159 9 10 C9 9.34 9 8.68 9 8 C8.443125 7.938125 7.88625 7.87625 7.3125 7.8125 C4.00931958 6.6519231 2.28105267 4.59786554 0 2 C0 1.34 0 0.68 0 0 Z " fill="#87CDEA" transform="translate(79,158)"/>
<path d="M0 0 C0.66 0 1.32 0 2 0 C2.33 2.64 2.66 5.28 3 8 C4.65 6.68 6.3 5.36 8 4 C7.979375 5.216875 7.95875 6.43375 7.9375 7.6875 C7.92879825 10.16314708 8.04094157 12.19106066 8.5625 14.625 C9.11798601 17.64049548 8.52281817 19.97927282 8 23 C7.91141316 26.00210966 7.93994957 28.99747857 8 32 C4.94923508 28.57442681 3.93993997 24.92023436 2.875 20.5625 C2.70613281 19.90701172 2.53726562 19.25152344 2.36328125 18.57617188 C0.72411629 12.14212675 -0.11206722 6.61196594 0 0 Z " fill="#0C81C8" transform="translate(8,104)"/>
<path d="M0 0 C0.33 0 0.66 0 1 0 C1.33 3.63 1.66 7.26 2 11 C7.28 12.32 12.56 13.64 18 15 C17.01 15.33 16.02 15.66 15 16 C15 16.66 15 17.32 15 18 C7.09290669 17.354523 -0.39133967 15.13002861 -8 13 C-7.34 12.67 -6.68 12.34 -6 12 C-6 9.03 -6 6.06 -6 3 C-4.35 3 -2.7 3 -1 3 C-0.67 2.01 -0.34 1.02 0 0 Z " fill="#7EC1DD" transform="translate(54,76)"/>
<path d="M0 0 C2.64 0 5.28 0 8 0 C3.72304016 5.94562221 -0.74040619 11.88255738 -6 17 C-6.66 17 -7.32 17 -8 17 C-8 17.66 -8 18.32 -8 19 C-9.49609375 20.2890625 -9.49609375 20.2890625 -11.4375 21.625 C-12.07558594 22.07101563 -12.71367187 22.51703125 -13.37109375 22.9765625 C-15 24 -15 24 -16 24 C-16 21.36 -16 18.72 -16 16 C-13.36 16 -10.72 16 -8 16 C-8.04125 15.05125 -8.0825 14.1025 -8.125 13.125 C-8 10 -8 10 -6 8 C-2.875 7.875 -2.875 7.875 0 8 C0 5.36 0 2.72 0 0 Z " fill="#1C8ED2" transform="translate(168,152)"/>
<path d="M0 0 C7.21145583 7.21145583 7.84048365 20.45802174 8 30 C7.01 29.34 6.02 28.68 5 28 C5 26.68 5 25.36 5 24 C3.35 24.66 1.7 25.32 0 26 C0 17.42 0 8.84 0 0 Z " fill="#0B7ABD" transform="translate(184,64)"/>
<path d="M0 0 C9.45578391 4.8284854 17.23367964 12.0631305 23 21 C23 21.66 23 22.32 23 23 C20.69 23 18.38 23 16 23 C16 20.36 16 17.72 16 15 C13.36 15.33 10.72 15.66 8 16 C8 13.03 8 10.06 8 7 C5.36 7 2.72 7 0 7 C0 4.69 0 2.38 0 0 Z " fill="#1D8CCE" transform="translate(152,25)"/>
<path d="M0 0 C2.64 0 5.28 0 8 0 C7.34 0.53625 6.68 1.0725 6 1.625 C3.44489473 4.65918751 3.84189583 6.12644785 4 10 C3.5625 12.75 3.5625 12.75 2 15 C-3.13955189 17.04944941 -8.53836131 17.23241016 -14 17 C-14 16.34 -14 15.68 -14 15 C-13.24074219 14.67128906 -12.48148437 14.34257812 -11.69921875 14.00390625 C-5.77802746 11.33060359 -5.77802746 11.33060359 -1.6015625 6.59765625 C-0.8989009 4.39575134 -0.35007951 2.28312725 0 0 Z " fill="#80C7E5" transform="translate(92,119)"/>
<path d="M0 0 C0.66 0 1.32 0 2 0 C2.33 0.66 2.66 1.32 3 2 C3.66 2 4.32 2 5 2 C4.94199219 2.86882812 4.88398437 3.73765625 4.82421875 4.6328125 C4.33009265 11.06630648 4.33009265 11.06630648 6.1484375 17.05859375 C7.40676228 18.39686734 8.70108556 19.70108556 10 21 C9.67 22.32 9.34 23.64 9 25 C6.03 25 3.06 25 0 25 C0 16.75 0 8.5 0 0 Z " fill="#87D1F1" transform="translate(48,112)"/>
<path d="M0 0 C5.68839798 -0.1841111 10.51764044 0.33545653 16 1.8125 C17.04220703 2.08271973 17.04220703 2.08271973 18.10546875 2.35839844 C22.87517314 3.62241484 27.44851499 5.10354791 32 7 C32 7.33 32 7.66 32 8 C30.083412 8.02712153 28.1667127 8.04645097 26.25 8.0625 C24.64898437 8.07990234 24.64898437 8.07990234 23.015625 8.09765625 C20.46631499 8.01510087 18.42066409 7.74617558 16 7 C16 6.34 16 5.68 16 5 C10.06 5.495 10.06 5.495 4 6 C4 4.68 4 3.36 4 2 C2.68 1.34 1.36 0.68 0 0 Z " fill="#3195CF" transform="translate(104,8)"/>
<path d="M0 0 C0.33 0 0.66 0 1 0 C1 5.28 1 10.56 1 16 C-1.31 16 -3.62 16 -6 16 C-6.33 19.3 -6.66 22.6 -7 26 C-7.66 25.67 -8.32 25.34 -9 25 C-9.99 26.98 -10.98 28.96 -12 31 C-13.35023519 26.94929443 -11.97340534 24.3706861 -10.5 20.5625 C-10.09648315 19.50192383 -10.09648315 19.50192383 -9.68481445 18.41992188 C-7.11815159 11.90075985 -3.97878826 5.78732837 0 0 Z " fill="#0B7FC3" transform="translate(23,49)"/>
<path d="M0 0 C3.63 0 7.26 0 11 0 C12.20272819 2.40545638 12.10071472 3.94996953 12.0625 6.625 C12.05347656 7.44226563 12.04445313 8.25953125 12.03515625 9.1015625 C12.02355469 9.72804687 12.01195313 10.35453125 12 11 C11.67 11 11.34 11 11 11 C11 9.02 11 7.04 11 5 C8.167832 4.66551741 8.167832 4.66551741 5 5 C2.7914234 6.87508162 2.7914234 6.87508162 1 9 C-2.56045177 10.18681726 -5.43808337 10.09689832 -9.1875 10.0625 C-10.45980469 10.05347656 -11.73210937 10.04445312 -13.04296875 10.03515625 C-14.50669922 10.01775391 -14.50669922 10.01775391 -16 10 C-15.67 9.34 -15.34 8.68 -15 8 C-11.37 8 -7.74 8 -4 8 C-4 6.02 -4 4.04 -4 2 C-2 4 -2 4 -2 7 C-1.34 7 -0.68 7 0 7 C0 4.69 0 2.38 0 0 Z " fill="#86CBE9" transform="translate(108,144)"/>
<path d="M0 0 C0.78375 0.165 1.5675 0.33 2.375 0.5 C4.86834776 0.97492338 6.3721219 1.17334895 8.796875 0.50390625 C11.34411967 -0.07870822 13.63976191 -0.09684524 16.25 -0.0625 C17.14203125 -0.05347656 18.0340625 -0.04445312 18.953125 -0.03515625 C19.62859375 -0.02355469 20.3040625 -0.01195312 21 0 C18.91235961 2.30561401 17.19136616 3.53561616 14.27734375 4.60546875 C13.57416016 4.86650391 12.87097656 5.12753906 12.14648438 5.39648438 C11.41751953 5.65751953 10.68855469 5.91855469 9.9375 6.1875 C9.20466797 6.46013672 8.47183594 6.73277344 7.71679688 7.01367188 C2.29546523 9 2.29546523 9 0 9 C0 6.03 0 3.06 0 0 Z " fill="#7EBDD6" transform="translate(104,40)"/>
<path d="M0 0 C1.670625 0.061875 1.670625 0.061875 3.375 0.125 C3.375 0.785 3.375 1.445 3.375 2.125 C2.78332031 2.31835938 2.19164062 2.51171875 1.58203125 2.7109375 C0.79183594 2.97132813 0.00164062 3.23171875 -0.8125 3.5 C-1.58980469 3.75523437 -2.36710937 4.01046875 -3.16796875 4.2734375 C-5.63194132 5.08295196 -5.63194132 5.08295196 -7.9375 6.1875 C-11.40996445 7.39882481 -14.79753176 7.58280529 -18.4375 7.75 C-19.13037109 7.78867188 -19.82324219 7.82734375 -20.53710938 7.8671875 C-22.23267015 7.96073568 -23.92879712 8.04392364 -25.625 8.125 C-25.955 7.135 -26.285 6.145 -26.625 5.125 C-23.62186252 3.62343126 -20.83432478 4.03218796 -17.5 4.0625 C-16.21867187 4.07152344 -14.93734375 4.08054688 -13.6171875 4.08984375 C-12.62976563 4.10144531 -11.64234375 4.11304688 -10.625 4.125 C-10.625 3.465 -10.625 2.805 -10.625 2.125 C-9.84125 2.16625 -9.0575 2.2075 -8.25 2.25 C-4.3959943 2.06647592 -4.19610231 0.14469318 0 0 Z " fill="#379AD3" transform="translate(130.625,183.875)"/>
<path d="M0 0 C2.3431213 0.25561323 4.67843403 0.59270772 7 1 C7.33 1.66 7.66 2.32 8 3 C10.02463255 3.65213292 10.02463255 3.65213292 12 4 C12.66 2.68 13.32 1.36 14 0 C15.48280196 0.78483659 16.9611498 1.57809334 18.4375 2.375 C19.67306641 3.03628906 19.67306641 3.03628906 20.93359375 3.7109375 C23 5 23 5 24 7 C21.69 7.33 19.38 7.66 17 8 C17.66 9.32 18.32 10.64 19 12 C15.30567302 10.25292911 11.8497183 8.14067467 8.375 6 C7.78976563 5.64421875 7.20453125 5.2884375 6.6015625 4.921875 C4.16366025 3.42334793 2.03107028 2.03107028 0 0 Z " fill="#09151E" transform="translate(140,17)"/>
<path d="M0 0 C1.98 0 3.96 0 6 0 C6.77577388 3.39401072 7.2824844 6.51602575 7 10 C6.34 10.66 5.68 11.32 5 12 C5.66 12.66 6.32 13.32 7 14 C6.9765625 16.3828125 6.9765625 16.3828125 6.625 19.125 C6.51414063 20.03507812 6.40328125 20.94515625 6.2890625 21.8828125 C6.19367188 22.58148438 6.09828125 23.28015625 6 24 C3.99385267 20.50878257 3.24415528 17.05269327 2.4375 13.125 C2.18871094 11.93132813 1.93992188 10.73765625 1.68359375 9.5078125 C1.06726802 6.34518102 0.51074127 3.18118849 0 0 Z " fill="#86CFEF" transform="translate(137,48)"/>
<path d="M0 0 C2.64 0 5.28 0 8 0 C8 5.28 8 10.56 8 16 C5.85396308 13.13861744 4.05053288 10.52211691 2.3125 7.4375 C1.65701172 6.29087891 1.65701172 6.29087891 0.98828125 5.12109375 C0 3 0 3 0 0 Z " fill="#0D81C6" transform="translate(16,136)"/>
<path d="M0 0 C8 10 8 10 8 14 C4.71303767 14.79953138 3.28976808 15.09658936 0 14 C0 9.38 0 4.76 0 0 Z " fill="#0E81C7" transform="translate(176,50)"/>
<path d="M0 0 C7.24158565 0.35000997 13.34405447 1.05602409 20 4 C19.01 5.485 19.01 5.485 18 7 C12.23826782 6.37372476 6.31618644 5.38311806 1 3 C0.67 2.01 0.34 1.02 0 0 Z " fill="#3391C7" transform="translate(66,184)"/>
<path d="M0 0 C9 0 9 0 12 1 C13.1875 3.0625 13.1875 3.0625 14 5 C9.74433453 6.16063604 6.3164922 5.76173392 2 5 C1.67 5.66 1.34 6.32 1 7 C0.01 6.67 -0.98 6.34 -2 6 C-2 4.68 -2 3.36 -2 2 C-1.34 2 -0.68 2 0 2 C0 1.34 0 0.68 0 0 Z " fill="#6BBFE9" transform="translate(66,32)"/>
<path d="M0 0 C1.36125 0.37125 1.36125 0.37125 2.75 0.75 C2.9375 3.0625 2.9375 3.0625 2.75 5.75 C1.76 6.74 0.77 7.73 -0.25 8.75 C-3.55 7.76 -6.85 6.77 -10.25 5.75 C-9.26 5.09 -8.27 4.43 -7.25 3.75 C-6.651875 3.028125 -6.05375 2.30625 -5.4375 1.5625 C-3.25 -0.25 -3.25 -0.25 0 0 Z " fill="#090C10" transform="translate(116.25,148.25)"/>
<path d="M0 0 C4.8274799 1.41292095 8.7162359 3.42974154 13 6 C12.67 6.66 12.34 7.32 12 8 C8.04 8 4.08 8 0 8 C0 5.36 0 2.72 0 0 Z " fill="#3099D7" transform="translate(136,16)"/>
<path d="M0 0 C2.64 0 5.28 0 8 0 C8 2.64 8 5.28 8 8 C9.65 8 11.3 8 13 8 C12.67 9.98 12.34 11.96 12 14 C6.7045931 9.97121781 3.20835538 5.82530885 0 0 Z " fill="#1284C8" transform="translate(24,152)"/>
<path d="M0 0 C1.98 0 3.96 0 6 0 C6 2.66666667 6 5.33333333 6 8 C5.67 8.33 5.34 8.66 5 9 C4.76321284 11.69235776 4.57801975 14.36498156 4.4375 17.0625 C4.39431641 17.82111328 4.35113281 18.57972656 4.30664062 19.36132812 C4.20026367 21.24065438 4.09960066 23.12030244 4 25 C3.67 25 3.34 25 3 25 C3 19.39 3 13.78 3 8 C2.01 8 1.02 8 0 8 C0 5.36 0 2.72 0 0 Z " fill="#44A2D7" transform="translate(24,88)"/>
<path d="M0 0 C-0.33 0.66 -0.66 1.32 -1 2 C-1.0396713 3.66619446 -1.04384447 5.33391013 -1 7 C-1.99 7 -2.98 7 -4 7 C-4.33 6.34 -4.66 5.68 -5 5 C-7.01943037 4.38538467 -7.01943037 4.38538467 -9.375 4 C-12.67525619 3.39799887 -14.11408973 2.92394018 -17 1 C-14.91835982 0.63601378 -12.83459438 0.28416713 -10.75 -0.0625 C-9.00976562 -0.35833984 -9.00976562 -0.35833984 -7.234375 -0.66015625 C-4.37477376 -0.9606216 -2.66674071 -0.9439206 0 0 Z " fill="#7CB8D4" transform="translate(113,161)"/>
<path d="M0 0 C3.82852379 1.51761303 5.73321866 3.79343415 8.25 7 C8.95640625 7.886875 9.6628125 8.77375 10.390625 9.6875 C12 12 12 12 12 14 C9.69 14 7.38 14 5 14 C5 11.36 5 8.72 5 6 C4.360625 5.855625 3.72125 5.71125 3.0625 5.5625 C1 5 1 5 0 4 C0 2.68 0 1.36 0 0 Z " fill="#1081C5" transform="translate(163,34)"/>
<path d="M0 0 C4.62 0 9.24 0 14 0 C14 1.65 14 3.3 14 5 C10.89490304 6.00915651 8.83438599 6.38728669 5.8203125 4.98828125 C3.80105849 3.73433169 1.85909545 2.48161414 0 1 C0 0.67 0 0.34 0 0 Z " fill="#7EC1D9" transform="translate(82,40)"/>
<path d="M0 0 C0.33 0 0.66 0 1 0 C1.061875 1.03125 1.12375 2.0625 1.1875 3.125 C1.9668757 6.84202258 2.24008187 7.60438923 4.625 10.1875 C5.800625 11.5796875 5.800625 11.5796875 7 13 C6.67 14.32 6.34 15.64 6 17 C3.03 17 0.06 17 -3 17 C-2.67 15.35 -2.34 13.7 -2 12 C-0.35 12.33 1.3 12.66 3 13 C2.319375 12.525625 1.63875 12.05125 0.9375 11.5625 C-1.33788214 8.55312362 -1.17604334 7.85716698 -0.75 4.25 C-0.52093516 2.82979799 -0.27748242 1.41154099 0 0 Z " fill="#85CFEE" transform="translate(51,120)"/>
<path d="M0 0 C6.24723226 -0.82200425 10.71317837 2.07448606 16 5 C16 6.32 16 7.64 16 9 C10.0942118 7.44584521 5.02261107 4.40465533 0 1 C0 0.67 0 0.34 0 0 Z " fill="#2683B9" transform="translate(48,176)"/>
<path d="M0 0 C0.33 0.66 0.66 1.32 1 2 C0.67 2.66 0.34 3.32 0 4 C0.66 4.33 1.32 4.66 2 5 C0.68 5 -0.64 5 -2 5 C-2.33 7.97 -2.66 10.94 -3 14 C-5.31 14 -7.62 14 -10 14 C-8.62815653 9.93501119 -6.77931541 7.32603439 -3.875 4.1875 C-3.15054687 3.39730469 -2.42609375 2.60710938 -1.6796875 1.79296875 C-1.12539063 1.20128906 -0.57109375 0.60960937 0 0 Z " fill="#1274B1" transform="translate(35,34)"/>
<path d="M0 0 C0.33 0.99 0.66 1.98 1 3 C3.97 3.495 3.97 3.495 7 4 C7 4.33 7 4.66 7 5 C0.71628693 5.10064005 -5.32809949 4.75941669 -11.5625 4 C-12.38041016 3.90460938 -13.19832031 3.80921875 -14.04101562 3.7109375 C-16.02788675 3.47855491 -18.01402794 3.23994484 -20 3 C-20 2.67 -20 2.34 -20 2 C-17.79248152 1.66131223 -15.58394089 1.32928311 -13.375 1 C-12.14523438 0.814375 -10.91546875 0.62875 -9.6484375 0.4375 C-6.3833973 0.04597484 -3.28287549 -0.08080924 0 0 Z " fill="#0E1319" transform="translate(102,95)"/>
<path d="M0 0 C0.33 0 0.66 0 1 0 C0.51298949 7.59064664 -0.99763587 14.67059167 -3 22 C-3.33 22 -3.66 22 -4 22 C-4.05407567 19.41638482 -4.093707 16.83390745 -4.125 14.25 C-4.14175781 13.52039062 -4.15851562 12.79078125 -4.17578125 12.0390625 C-4.21072239 8.1955376 -4.17499684 5.25393228 -2 2 C-1.34 2 -0.68 2 0 2 C0 1.34 0 0.68 0 0 Z " fill="#82C7E4" transform="translate(60,46)"/>
<path d="M0 0 C1 3.875 1 3.875 1 5 C1.99 5 2.98 5 4 5 C4 4.34 4 3.68 4 3 C4.99 3.33 5.98 3.66 7 4 C5.26440562 7.057952 3.61527381 9.63379989 1 12 C1 11.34 1 10.68 1 10 C0.34 9.67 -0.32 9.34 -1 9 C-1.33 8.67 -1.66 8.34 -2 8 C-2.66 7.67 -3.32 7.34 -4 7 C-2.79618552 4.50638429 -1.54571278 2.31856917 0 0 Z " fill="#091319" transform="translate(172,156)"/>
<path d="M0 0 C2 2 2 2 2 5 C1.484375 5.0825 0.96875 5.165 0.4375 5.25 C-1.87448812 5.96138096 -3.55482421 6.83941075 -5.625 8.0625 C-9 10 -9 10 -11 10 C-10.9375 7.6875 -10.9375 7.6875 -10 5 C-6.49851158 3.11957103 -3.9919694 2 0 2 C0 1.34 0 0.68 0 0 Z " fill="#050409" transform="translate(168,166)"/>
<path d="M0 0 C1.37432457 3.81756824 0.67975039 7.07255329 0 11 C-3.75 12.125 -3.75 12.125 -6 11 C-5.67 9.68 -5.34 8.36 -5 7 C-5.66 6.67 -6.32 6.34 -7 6 C-6.030625 5.38125 -5.06125 4.7625 -4.0625 4.125 C-0.97164638 2.34321154 -0.97164638 2.34321154 0 0 Z " fill="#80C4E0" transform="translate(144,124)"/>
<path d="M0 0 C-0.556875 0.4125 -1.11375 0.825 -1.6875 1.25 C-4.05109959 2.98992498 -4.05109959 2.98992498 -6.3125 5.0625 C-9.55675847 7.40138401 -12.13135484 8.08973055 -16 9 C-15.67 8.01 -15.34 7.02 -15 6 C-14.34 5.67 -13.68 5.34 -13 5 C-13 4.34 -13 3.68 -13 3 C-8.44573816 0.33409063 -5.26053037 -0.31563182 0 0 Z " fill="#2988BC" transform="translate(152,176)"/>
<path d="M0 0 C3.63 0 7.26 0 11 0 C12.20272819 2.40545638 12.10071472 3.94996953 12.0625 6.625 C12.05347656 7.44226563 12.04445313 8.25953125 12.03515625 9.1015625 C12.02355469 9.72804687 12.01195313 10.35453125 12 11 C11.67 11 11.34 11 11 11 C10.67 8.36 10.34 5.72 10 3 C5.545 3.495 5.545 3.495 1 4 C0.67 4.99 0.34 5.98 0 7 C0 4.69 0 2.38 0 0 Z " fill="#85CEEF" transform="translate(108,144)"/>
<path d="M0 0 C0 0.99 0 1.98 0 3 C-10.56 3 -21.12 3 -32 3 C-32 2.67 -32 2.34 -32 2 C-27.97954457 1.66200308 -23.95858312 1.33043881 -19.9375 1 C-18.2369043 0.85691406 -18.2369043 0.85691406 -16.50195312 0.7109375 C-10.98316765 0.2604244 -5.53752411 -0.12859272 0 0 Z " fill="#6FADC4" transform="translate(124,98)"/>
<path d="M0 0 C1.98 0 3.96 0 6 0 C6 1.98 6 3.96 6 6 C3.03 6 0.06 6 -3 6 C-3 4.68 -3 3.36 -3 2 C-2.01 2 -1.02 2 0 2 C0 1.34 0 0.68 0 0 Z " fill="#3099D5" transform="translate(58,18)"/>
<path d="M0 0 C0.33 0.99 0.66 1.98 1 3 C-1.43954658 4.21977329 -3.15305849 4.20153813 -5.875 4.25 C-7.17050781 4.28867188 -7.17050781 4.28867188 -8.4921875 4.328125 C-11.45024649 3.94108924 -12.79201784 2.95124005 -15 1 C-13.43784452 0.83013455 -11.8752548 0.66426036 -10.3125 0.5 C-9.44238281 0.4071875 -8.57226562 0.314375 -7.67578125 0.21875 C-5.10276661 0.00840136 -2.58015636 -0.03719144 0 0 Z " fill="#81CAE5" transform="translate(139,84)"/>
<path d="M0 0 C0.33 0 0.66 0 1 0 C1.08131463 1.43655854 1.13933559 2.8744483 1.1875 4.3125 C1.22230469 5.11300781 1.25710937 5.91351563 1.29296875 6.73828125 C0.93801608 9.47851584 0.10633718 10.29171079 -2 12 C-2 11.01 -2 10.02 -2 9 C-2.66 8.67 -3.32 8.34 -4 8 C-4 9.32 -4 10.64 -4 12 C-4.66 12 -5.32 12 -6 12 C-6 9.03 -6 6.06 -6 3 C-4.35 3 -2.7 3 -1 3 C-0.67 2.01 -0.34 1.02 0 0 Z " fill="#88D1EF" transform="translate(54,76)"/>
<path d="M0 0 C1.98 1.65 3.96 3.3 6 5 C5.525625 5.433125 5.05125 5.86625 4.5625 6.3125 C2.76313043 8.02309613 2.76313043 8.02309613 2 11 C-2.875 8.25 -2.875 8.25 -4 6 C-2.68 5.34 -1.36 4.68 0 4 C0 2.68 0 1.36 0 0 Z " fill="#0E1218" transform="translate(34,165)"/>
<path d="M0 0 C0.66 1.32 1.32 2.64 2 4 C1.01 4.495 1.01 4.495 0 5 C-0.46751788 7.35599235 -0.46751788 7.35599235 -0.625 10.0625 C-0.69976563 10.98160156 -0.77453125 11.90070313 -0.8515625 12.84765625 C-0.90054687 13.55792969 -0.94953125 14.26820312 -1 15 C-1.66 14.67 -2.32 14.34 -3 14 C-3.99 15.98 -4.98 17.96 -6 20 C-7.4146816 15.75595521 -5.6963296 12.84871797 -4.125 8.875 C-3.84269531 8.13378906 -3.56039063 7.39257812 -3.26953125 6.62890625 C-1.15992374 1.15992374 -1.15992374 1.15992374 0 0 Z " fill="#0B73AE" transform="translate(17,60)"/>
<path d="M0 0 C0 2.31 0 4.62 0 7 C-2.76276177 6.47731534 -5.3260876 5.89130413 -8 5 C-8 4.34 -8 3.68 -8 3 C-5.09451118 0.95830515 -3.59857954 0 0 0 Z " fill="#66BDE6" transform="translate(40,80)"/>
<path d="M0 0 C1.0013988 3.00419641 1.51421457 5.87709365 2 9 C2.33 9 2.66 9 3 9 C2.67 12.3 2.34 15.6 2 19 C0.3502238 15.7004476 -0.44917652 13.51857306 -1.125 10 C-1.29257813 9.154375 -1.46015625 8.30875 -1.6328125 7.4375 C-2 5 -2 5 -2 1 C-1.34 0.67 -0.68 0.34 0 0 Z " fill="#84C4DD" transform="translate(141,53)"/>
<path d="M0 0 C2.64 0 5.28 0 8 0 C7.67 0.66 7.34 1.32 7 2 C7.33 2.33 7.66 2.66 8 3 C7.5625 5.0625 7.5625 5.0625 7 7 C7 6.34 7 5.68 7 5 C4.69 5 2.38 5 0 5 C0 3.35 0 1.7 0 0 Z " fill="#87D3F2" transform="translate(80,144)"/>
<path d="M0 0 C0 0.66 0 1.32 0 2 C-0.99 2 -1.98 2 -3 2 C-3.04125 2.61875 -3.0825 3.2375 -3.125 3.875 C-3.558125 4.926875 -3.558125 4.926875 -4 6 C-6.8125 7.0625 -6.8125 7.0625 -10 8 C-12.30166675 9.51553153 -12.30166675 9.51553153 -14 11 C-14.66 10.67 -15.32 10.34 -16 10 C-14.42040347 8.70376621 -12.83616587 7.41318673 -11.25 6.125 C-10.36828125 5.40570312 -9.4865625 4.68640625 -8.578125 3.9453125 C-3.34939759 0 -3.34939759 0 0 0 Z " fill="#1A7EB8" transform="translate(58,18)"/>
<path d="M0 0 C1.98 0 3.96 0 6 0 C5.8125 2.3125 5.8125 2.3125 5 5 C2.4375 6.8125 2.4375 6.8125 0 8 C0 5.36 0 2.72 0 0 Z " fill="#258ECA" transform="translate(152,168)"/>
<path d="M0 0 C3.96 0.33 7.92 0.66 12 1 C8.39042389 4.2910841 5.87362847 5.54663921 1 6 C1.33 4.35 1.66 2.7 2 1 C1.34 0.67 0.68 0.34 0 0 Z " fill="#7CC6E6" transform="translate(36,99)"/>
<path d="M0 0 C4.48525648 0.656379 8.66914029 1.70074209 13 3 C13 3.33 13 3.66 13 4 C8.71 4.66 4.42 5.32 0 6 C0 4.02 0 2.04 0 0 Z " fill="#75B2CE" transform="translate(120,85)"/>
<path d="M0 0 C0 0.99 0 1.98 0 3 C-2.31 3 -4.62 3 -7 3 C-7.33 2.01 -7.66 1.02 -8 0 C-8.66 0.165 -9.32 0.33 -10 0.5 C-13.73099794 1.12183299 -17.21873378 1.06408926 -21 1 C-21 0.67 -21 0.34 -21 0 C-14.0024283 -1.19107603 -6.95092634 -1.79378744 0 0 Z " fill="#70A8C1" transform="translate(147,84)"/>
<path d="M0 0 C0.99 0 1.98 0 3 0 C1.55922954 3.36179774 -0.24750021 5.59156268 -3 8 C-3.66 8 -4.32 8 -5 8 C-5 8.66 -5 9.32 -5 10 C-5.99 9.67 -6.98 9.34 -8 9 C-7.67 8.34 -7.34 7.68 -7 7 C-6.34 7 -5.68 7 -5 7 C-5 6.01 -5 5.02 -5 4 C-4.01 4 -3.02 4 -2 4 C-1.34 2.68 -0.68 1.36 0 0 Z " fill="#1A81BA" transform="translate(165,161)"/>
<path d="M0 0 C2.64 0.33 5.28 0.66 8 1 C7.34 2.65 6.68 4.3 6 6 C3.69 5.67 1.38 5.34 -1 5 C-0.67 3.35 -0.34 1.7 0 0 Z " fill="#71C2E9" transform="translate(158,80)"/>
<path d="M0 0 C2.31 0 4.62 0 7 0 C6.67 2.64 6.34 5.28 6 8 C4.68 7.34 3.36 6.68 2 6 C2 4.35 2 2.7 2 1 C1.34 0.67 0.68 0.34 0 0 Z " fill="#248CCB" transform="translate(42,168)"/>
<path d="M0 0 C2.31 0 4.62 0 7 0 C6.34 0.53625 5.68 1.0725 5 1.625 C2.68975201 3.89958592 2.68975201 3.89958592 2.75 7.25 C2.8325 8.1575 2.915 9.065 3 10 C2.01 9.67 1.02 9.34 0 9 C0 6.03 0 3.06 0 0 Z " fill="#81D1F2" transform="translate(93,119)"/>
<path d="M0 0 C0.33 0.66 0.66 1.32 1 2 C-3.76307437 2.95261487 -8.1666528 3.08333357 -13 3 C-12.67 2.01 -12.34 1.02 -12 0 C-7.69211856 -0.92311745 -4.29105809 -1.09771253 0 0 Z " fill="#89D4F2" transform="translate(154,83)"/>
<path d="M0 0 C2.475 0.495 2.475 0.495 5 1 C5 4.59857954 4.04169485 6.09451118 2 9 C1.34 9 0.68 9 0 9 C0 6.03 0 3.06 0 0 Z " fill="#86CEEC" transform="translate(104,40)"/>
<path d="M0 0 C3 1 3 1 4.1875 3.0625 C4.455625 3.701875 4.72375 4.34125 5 5 C2.6875 5.625 2.6875 5.625 0 6 C-0.99 5.34 -1.98 4.68 -3 4 C-2.67 3.01 -2.34 2.02 -2 1 C-1.34 0.67 -0.68 0.34 0 0 Z " fill="#7CCBEF" transform="translate(75,32)"/>
<path d="M0 0 C1.32 0.66 2.64 1.32 4 2 C1.36 3.98 -1.28 5.96 -4 8 C-4.66 7.01 -5.32 6.02 -6 5 C-2.25 2 -2.25 2 0 2 C0 1.34 0 0.68 0 0 Z " fill="#151515" transform="translate(166,170)"/>
<path d="M0 0 C11.52164009 -0.3690205 11.52164009 -0.3690205 17 2 C16.0409375 2.37125 16.0409375 2.37125 15.0625 2.75 C12.81258459 3.81562433 12.81258459 3.81562433 12.25 6.125 C12.1675 6.74375 12.085 7.3625 12 8 C11.67 6.02 11.34 4.04 11 2 C7.37 1.67 3.74 1.34 0 1 C0 0.67 0 0.34 0 0 Z " fill="#1C2B37" transform="translate(93,114)"/>
<path d="M0 0 C-0.33 0.99 -0.66 1.98 -1 3 C-6.37625234 3.84888195 -10.65370398 4.0024305 -16 3 C-16 2.67 -16 2.34 -16 2 C-14.27192682 1.66104344 -12.54248026 1.32908475 -10.8125 1 C-9.84957031 0.814375 -8.88664062 0.62875 -7.89453125 0.4375 C-5.2065794 0.03122388 -2.71228981 -0.07933572 0 0 Z " fill="#73B6D6" transform="translate(109,88)"/>
<path d="M0 0 C0.99 0 1.98 0 3 0 C3 1.65 3 3.3 3 5 C-2.28 5 -7.56 5 -13 5 C-13 4.67 -13 4.34 -13 4 C-11.71802734 3.81824219 -11.71802734 3.81824219 -10.41015625 3.6328125 C-9.30542969 3.46523437 -8.20070313 3.29765625 -7.0625 3.125 C-5.96035156 2.96257812 -4.85820313 2.80015625 -3.72265625 2.6328125 C-2.37494141 2.31957031 -2.37494141 2.31957031 -1 2 C-0.67 1.34 -0.34 0.68 0 0 Z " fill="#7BC9EA" transform="translate(109,88)"/>
<path d="M0 0 C2.31 0 4.62 0 7 0 C7.33 0.66 7.66 1.32 8 2 C6.35 2.33 4.7 2.66 3 3 C3 3.66 3 4.32 3 5 C3.66 5.33 4.32 5.66 5 6 C3.35 6 1.7 6 0 6 C0 4.02 0 2.04 0 0 Z " fill="#3CA0DB" transform="translate(136,176)"/>
<path d="M0 0 C0.66 0 1.32 0 2 0 C2 0.66 2 1.32 2 2 C2.66 2.33 3.32 2.66 4 3 C3.67 3.33 3.34 3.66 3 4 C2.76924918 5.34747084 2.58846937 6.70377565 2.4375 8.0625 C2.293125 9.361875 2.14875 10.66125 2 12 C1.34 10.68 0.68 9.36 0 8 C-0.66 8 -1.32 8 -2 8 C-2 5 -2 5 0 3 C0 2.01 0 1.02 0 0 Z " fill="#0A85D1" transform="translate(188,104)"/>
<path d="M0 0 C1.65 0.33 3.3 0.66 5 1 C5.93423645 4.01031744 6.04449911 4.86650268 5 8 C2.69 7.01 0.38 6.02 -2 5 C-1.67 4.360625 -1.34 3.72125 -1 3.0625 C0.07271225 1.23205433 0.07271225 1.23205433 0 0 Z " fill="#5CABD6" transform="translate(162,82)"/>
<path d="M0 0 C0.33 1.32 0.66 2.64 1 4 C1.66 4 2.32 4 3 4 C2.88637738 5.4800841 2.75877092 6.95910074 2.625 8.4375 C2.52058594 9.67306641 2.52058594 9.67306641 2.4140625 10.93359375 C2.27742187 11.61550781 2.14078125 12.29742187 2 13 C1.01 13.495 1.01 13.495 0 14 C0 9.38 0 4.76 0 0 Z " fill="#0D84CF" transform="translate(184,76)"/>
<path d="M0 0 C4.62 0 9.24 0 14 0 C11.47519307 2.52480693 9.86176966 2.55738633 6.375 3.125 C5.37210937 3.29257812 4.36921875 3.46015625 3.3359375 3.6328125 C2.56507812 3.75398438 1.79421875 3.87515625 1 4 C1.33 3.01 1.66 2.02 2 1 C1.34 0.67 0.68 0.34 0 0 Z " fill="#84D0F0" transform="translate(111,40)"/>
<path d="M0 0 C3.91211733 1.15585285 6.8745041 2.35534962 10 5 C6.42355152 6.2380014 3.66305234 5.74926071 0 5 C0 3.35 0 1.7 0 0 Z " fill="#2692CC" transform="translate(136,16)"/>
<path d="M0 0 C0.66 0.33 1.32 0.66 2 1 C2 2.32 2 3.64 2 5 C1.34 5 0.68 5 0 5 C-0.66 6.98 -1.32 8.96 -2 11 C-2.33 11 -2.66 11 -3 11 C-3.36923077 3.49230769 -3.36923077 3.49230769 -1.5 1 C-1.005 0.67 -0.51 0.34 0 0 Z " fill="#0B7BBE" transform="translate(179,141)"/>
<path d="M0 0 C4.29 0.33 8.58 0.66 13 1 C13 1.33 13 1.66 13 2 C8.9472484 2.98248524 5.16138263 3.08159574 1 3 C0.67 2.01 0.34 1.02 0 0 Z " fill="#4DABE0" transform="translate(104,184)"/>
<path d="M0 0 C4.20626034 1.50223584 5.73900021 4.28550034 8 8 C7.34 8 6.68 8 6 8 C5.67 8.66 5.34 9.32 5 10 C5 8.68 5 7.36 5 6 C4.360625 5.855625 3.72125 5.71125 3.0625 5.5625 C1 5 1 5 0 4 C0 2.68 0 1.36 0 0 Z " fill="#1373B0" transform="translate(163,34)"/>
<path d="M0 0 C4.29 0.33 8.58 0.66 13 1 C13 2.32 13 3.64 13 5 C12.01 5 11.02 5 10 5 C9.67 4.34 9.34 3.68 9 3 C6.88153715 2.31270746 6.88153715 2.31270746 4.4375 1.875 C3.61121094 1.70742187 2.78492187 1.53984375 1.93359375 1.3671875 C1.29550781 1.24601563 0.65742187 1.12484375 0 1 C0 0.67 0 0.34 0 0 Z " fill="#89D1F3" transform="translate(99,163)"/>
<path d="M0 0 C0.99 0 1.98 0 3 0 C3 0.66 3 1.32 3 2 C4.65 2 6.3 2 8 2 C7.67 3.98 7.34 5.96 7 8 C5.8274869 7.04882866 4.66212985 6.08882991 3.5 5.125 C2.8503125 4.59132812 2.200625 4.05765625 1.53125 3.5078125 C1.0259375 3.01023438 0.520625 2.51265625 0 2 C0 1.34 0 0.68 0 0 Z " fill="#1379B3" transform="translate(29,158)"/>
<path d="M0 0 C1.2065625 0.0309375 1.2065625 0.0309375 2.4375 0.0625 C2.4375 1.7125 2.4375 3.3625 2.4375 5.0625 C1.1175 5.3925 -0.2025 5.7225 -1.5625 6.0625 C-2.2225 4.4125 -2.8825 2.7625 -3.5625 1.0625 C-2.5625 0.0625 -2.5625 0.0625 0 0 Z " fill="#87CEED" transform="translate(93.5625,39.9375)"/>
<path d="M0 0 C0.91058531 3.07322544 1.08886184 5.80097361 1 9 C1.66 9 2.32 9 3 9 C3 10.65 3 12.3 3 14 C-0.33773709 10.35883227 -0.97864902 6.71392758 -2 2 C-1.34 2 -0.68 2 0 2 C0 1.34 0 0.68 0 0 Z " fill="#0C78B6" transform="translate(13,122)"/>
<path d="M0 0 C0.66 0.33 1.32 0.66 2 1 C0.84906278 4.45281166 -0.3205993 5.38082163 -3.0625 7.6875 C-3.79597656 8.31011719 -4.52945312 8.93273438 -5.28515625 9.57421875 C-5.85105469 10.04472656 -6.41695312 10.51523437 -7 11 C-7 7.22089522 -6.00296038 6.53893899 -3.5 3.8125 C-2.8503125 3.09707031 -2.200625 2.38164063 -1.53125 1.64453125 C-1.0259375 1.10183594 -0.520625 0.55914062 0 0 Z " fill="#222021" transform="translate(27,32)"/>
<path d="M0 0 C2.64 0 5.28 0 8 0 C7.67 1.65 7.34 3.3 7 5 C4.36 4.01 1.72 3.02 -1 2 C-0.67 1.34 -0.34 0.68 0 0 Z " fill="#3A9FDA" transform="translate(57,176)"/>
<path d="M0 0 C1.17571451 3.67410785 1.07366746 7.16929183 1 11 C0.34 11 -0.32 11 -1 11 C-2.25 3.375 -2.25 3.375 0 0 Z " fill="#060200" transform="translate(190,125)"/>
<path d="M0 0 C0.33 0 0.66 0 1 0 C1.103125 1.051875 1.20625 2.10375 1.3125 3.1875 C1.97733415 6.87430754 2.88566296 8.96638599 5 12 C2.5625 11.625 2.5625 11.625 0 11 C-1.26026798 8.47946405 -0.91874445 7.1457902 -0.5625 4.375 C-0.46066406 3.55773437 -0.35882813 2.74046875 -0.25390625 1.8984375 C-0.17011719 1.27195312 -0.08632813 0.64546875 0 0 Z " fill="#7CB8D3" transform="translate(51,120)"/>
<path d="M0 0 C0.33 1.32 0.66 2.64 1 4 C0.01 4.495 0.01 4.495 -1 5 C-1 5.66 -1 6.32 -1 7 C-0.34 7.33 0.32 7.66 1 8 C-0.98 8.33 -2.96 8.66 -5 9 C-4.34 8.01 -3.68 7.02 -3 6 C-3.33 5.34 -3.66 4.68 -4 4 C-2.68 2.68 -1.36 1.36 0 0 Z " fill="#64BBE5" transform="translate(167,95)"/>
<path d="M0 0 C3.63 0.66 7.26 1.32 11 2 C9 4 9 4 6.0625 4.375 C4.5465625 4.189375 4.5465625 4.189375 3 4 C2.01 2.68 1.02 1.36 0 0 Z " fill="#0D1319" transform="translate(61,93)"/>
<path d="M0 0 C0.33 0 0.66 0 1 0 C1 1.98 1 3.96 1 6 C1.66 6 2.32 6 3 6 C3 7.98 3 9.96 3 12 C0 10 0 10 -0.75 7.125 C-0.97200751 4.34990614 -0.89796012 2.59410701 0 0 Z " fill="#0D80C7" transform="translate(189,82)"/>
<path d="M0 0 C0.33 0.66 0.66 1.32 1 2 C1.66 2 2.32 2 3 2 C3 2.99 3 3.98 3 5 C0.69 5 -1.62 5 -4 5 C-3 2 -3 2 0 0 Z " fill="#0E82C8" transform="translate(29,43)"/>
<path d="M0 0 C0.99 0.99 1.98 1.98 3 3 C2.01 4.485 2.01 4.485 1 6 C-0.9375 5.625 -0.9375 5.625 -3 5 C-3.33 4.34 -3.66 3.68 -4 3 C-2.68 2.01 -1.36 1.02 0 0 Z " fill="#1E91D5" transform="translate(46,26)"/>
<path d="M0 0 C4.21878192 -0.19622241 7.17010894 0.19769832 11 2 C10.67 2.66 10.34 3.32 10 4 C3.47692308 3.38461538 3.47692308 3.38461538 1.0625 1.4375 C0.711875 0.963125 0.36125 0.48875 0 0 Z " fill="#248DCA" transform="translate(48,176)"/>
<path d="M0 0 C0.99 0 1.98 0 3 0 C2.67 1.98 2.34 3.96 2 6 C1.01 6 0.02 6 -1 6 C-1.625 4.125 -1.625 4.125 -2 2 C-1.34 1.34 -0.68 0.68 0 0 Z " fill="#1D90D6" transform="translate(37,160)"/>
<path d="M0 0 C-0.33 0.66 -0.66 1.32 -1 2 C-2.32 2 -3.64 2 -5 2 C-7.25065102 3.91666921 -7.25065102 3.91666921 -9 6 C-9.66 5.34 -10.32 4.68 -11 4 C-10.34 4 -9.68 4 -9 4 C-9 3.01 -9 2.02 -9 1 C-5.8035914 -0.06546953 -3.34252724 -0.07427838 0 0 Z " fill="#83C2DC" transform="translate(118,147)"/>
<path d="M0 0 C2.31 0.33 4.62 0.66 7 1 C7 1.33 7 1.66 7 2 C5.906875 2.28875 4.81375 2.5775 3.6875 2.875 C-0.04013845 3.81893204 -0.04013845 3.81893204 -3 6 C-3.33 5.01 -3.66 4.02 -4 3 C-3.01 3 -2.02 3 -1 3 C-0.67 2.01 -0.34 1.02 0 0 Z " fill="#6CAFCD" transform="translate(68,36)"/>
<path d="M0 0 C8.57142857 -0.28571429 8.57142857 -0.28571429 12 2 C9.36 2.66 6.72 3.32 4 4 C4 3.34 4 2.68 4 2 C2.68 1.34 1.36 0.68 0 0 Z " fill="#2D89BF" transform="translate(104,8)"/>
<path d="M0 0 C3.63 0.33 7.26 0.66 11 1 C11 1.33 11 1.66 11 2 C4.565 2.495 4.565 2.495 -2 3 C-1.34 2.01 -0.68 1.02 0 0 Z " fill="#3389BD" transform="translate(109,189)"/>
<path d="M0 0 C0 0.66 0 1.32 0 2 C0.66 2.33 1.32 2.66 2 3 C0.6875 4.5 0.6875 4.5 -1 6 C-1.99 6 -2.98 6 -4 6 C-4 4.35 -4 2.7 -4 1 C-2 0 -2 0 0 0 Z " fill="#070305" transform="translate(40,171)"/>
<path d="M0 0 C-3 2 -3 2 -6.1875 1.625 C-7.115625 1.41875 -8.04375 1.2125 -9 1 C-9.33 1.66 -9.66 2.32 -10 3 C-10.33 2.01 -10.66 1.02 -11 0 C-7.18243176 -1.37432457 -3.92744671 -0.67975039 0 0 Z " fill="#89D5F8" transform="translate(122,133)"/>
<path d="M0 0 C2.97 0.33 5.94 0.66 9 1 C8.01 1.495 8.01 1.495 7 2 C7 2.66 7 3.32 7 4 C6.01 4.33 5.02 4.66 4 5 C3.67 4.01 3.34 3.02 3 2 C2.01 2 1.02 2 0 2 C0 1.34 0 0.68 0 0 Z " fill="#0C131A" transform="translate(88,114)"/>
<path d="M0 0 C2.96175123 0.61277612 4.38058783 1.25372522 7 3 C2.545 3.495 2.545 3.495 -2 4 C-1.34 2.68 -0.68 1.36 0 0 Z " fill="#83D2F4" transform="translate(118,86)"/>
<path d="M0 0 C0.66 0 1.32 0 2 0 C1.67 2.31 1.34 4.62 1 7 C1.99 6.67 2.98 6.34 4 6 C4 6.66 4 7.32 4 8 C3.34 8 2.68 8 2 8 C1.67 8.66 1.34 9.32 1 10 C-0.83691257 6.21812119 -1.15837626 4.05431692 0 0 Z " fill="#011221" transform="translate(187,64)"/>
<path d="M0 0 C0.33 0.66 0.66 1.32 1 2 C0 3.66666667 -1 5.33333333 -2 7 C-1.67 7.66 -1.34 8.32 -1 9 C-1.66 9 -2.32 9 -3 9 C-3.33 9.66 -3.66 10.32 -4 11 C-5 8 -5 8 -4.00390625 5.95703125 C-3.52824219 5.24933594 -3.05257813 4.54164062 -2.5625 3.8125 C-2.08941406 3.09707031 -1.61632812 2.38164063 -1.12890625 1.64453125 C-0.75636719 1.10183594 -0.38382813 0.55914062 0 0 Z " fill="#2B2B2B" transform="translate(15,48)"/>
<path d="M0 0 C1.98 0 3.96 0 6 0 C4.86695008 3.39914975 3.87481525 4.05254451 1 6 C0.67 4.02 0.34 2.04 0 0 Z " fill="#82C7E4" transform="translate(137,48)"/>
<path d="M0 0 C3.63 0 7.26 0 11 0 C10.67 1.32 10.34 2.64 10 4 C9.46375 3.690625 8.9275 3.38125 8.375 3.0625 C5.6015043 1.82172561 2.99957163 1.4090325 0 1 C0 0.67 0 0.34 0 0 Z " fill="#7AB9D6" transform="translate(125,40)"/>
<path d="M0 0 C1.32 0.33 2.64 0.66 4 1 C2.92892883 1.86949317 1.84254056 2.72014205 0.75 3.5625 C0.14671875 4.03816406 -0.4565625 4.51382813 -1.078125 5.00390625 C-3 6 -3 6 -5.234375 5.65234375 C-5.81703125 5.43707031 -6.3996875 5.22179687 -7 5 C-6.21625 4.731875 -5.4325 4.46375 -4.625 4.1875 C-1.71885077 3.15185568 -1.71885077 3.15185568 0 0 Z " fill="#162A33" transform="translate(113,148)"/>
<path d="M0 0 C2.88575819 0.39803561 3.82189513 0.79009069 5.75 3.0625 C6.1625 3.701875 6.575 4.34125 7 5 C5.68 5.33 4.36 5.66 3 6 C3 5.34 3 4.68 3 4 C2.01 3.67 1.02 3.34 0 3 C0 2.01 0 1.02 0 0 Z " fill="#80C8E5" transform="translate(104,125)"/>
<path d="M0 0 C0.99 0 1.98 0 3 0 C3 2.64 3 5.28 3 8 C2.01 8 1.02 8 0 8 C0 5.36 0 2.72 0 0 Z " fill="#389CD8" transform="translate(24,88)"/>
<path d="M0 0 C1.98 0 3.96 0 6 0 C6 0.66 6 1.32 6 2 C3.03 2.66 0.06 3.32 -3 4 C-3 3.34 -3 2.68 -3 2 C-2.01 2 -1.02 2 0 2 C0 1.34 0 0.68 0 0 Z " fill="#2896DD" transform="translate(58,18)"/>
<path d="M0 0 C1.32 0.33 2.64 0.66 4 1 C4 1.66 4 2.32 4 3 C3.01 3.66 2.02 4.32 1 5 C0.01 4.67 -0.98 4.34 -2 4 C-2 3.34 -2 2.68 -2 2 C-1.34 2 -0.68 2 0 2 C0 1.34 0 0.68 0 0 Z " fill="#02070B" transform="translate(50,17)"/>
<path d="M0 0 C2.31 0 4.62 0 7 0 C4.61426621 1.89213369 2.92824652 3.02391783 0 4 C0 2.68 0 1.36 0 0 Z " fill="#278ECC" transform="translate(145,176)"/>
<path d="M0 0 C0.66 1.32 1.32 2.64 2 4 C1.34 4.66 0.68 5.32 0 6 C-0.99 5.67 -1.98 5.34 -3 5 C-2.625 3.0625 -2.625 3.0625 -2 1 C-1.34 0.67 -0.68 0.34 0 0 Z " fill="#020204" transform="translate(33,165)"/>
<path d="M0 0 C0.33 0.66 0.66 1.32 1 2 C-0.32 3.65 -1.64 5.3 -3 7 C-4.32 6.67 -5.64 6.34 -7 6 C-4.69 4.02 -2.38 2.04 0 0 Z " fill="#011322" transform="translate(167,163)"/>
<path d="M0 0 C0.33 0 0.66 0 1 0 C0.25 6.75 0.25 6.75 -2 9 C-2.6875 6.75 -2.6875 6.75 -3 4 C-1.625 1.6875 -1.625 1.6875 0 0 Z " fill="#0C1419" transform="translate(91,119)"/>
<path d="M0 0 C0.33 0.99 0.66 1.98 1 3 C-1.875 3.125 -1.875 3.125 -5 3 C-5.66 2.34 -6.32 1.68 -7 1 C-4.53721199 -0.231394 -2.7204945 -0.07159196 0 0 Z " fill="#85D4F5" transform="translate(139,84)"/>
<path d="M0 0 C0.66 0.33 1.32 0.66 2 1 C2 1.66 2 2.32 2 3 C2.99 3.33 3.98 3.66 5 4 C4.67 4.66 4.34 5.32 4 6 C2.68 5.67 1.36 5.34 0 5 C-0.5625 3.0625 -0.5625 3.0625 -1 1 C-0.67 0.67 -0.34 0.34 0 0 Z " fill="#0D87D4" transform="translate(19,59)"/>
<path d="M0 0 C2.125 0.375 2.125 0.375 4 1 C2.35 2.65 0.7 4.3 -1 6 C-1.625 4.125 -1.625 4.125 -2 2 C-1.34 1.34 -0.68 0.68 0 0 Z " fill="#1081C4" transform="translate(172,152)"/>
<path d="M0 0 C1.32 0.66 2.64 1.32 4 2 C2.35 3.32 0.7 4.64 -1 6 C-1.042721 4.33388095 -1.04063832 2.66617115 -1 1 C-0.67 0.67 -0.34 0.34 0 0 Z " fill="#75C4EC" transform="translate(161,99)"/>
<path d="M0 0 C-0.99 0.33 -1.98 0.66 -3 1 C-3 1.66 -3 2.32 -3 3 C-4.65 3 -6.3 3 -8 3 C-8.33 2.34 -8.66 1.68 -9 1 C-5.8035914 -0.06546953 -3.34252724 -0.07427838 0 0 Z " fill="#84C4E4" transform="translate(72,91)"/>
<path d="M0 0 C0.33 0 0.66 0 1 0 C1 2.31 1 4.62 1 7 C-0.32 7 -1.64 7 -3 7 C-1.125 1.125 -1.125 1.125 0 0 Z " fill="#106FA9" transform="translate(23,49)"/>
<path d="M0 0 C1.32 0.66 2.64 1.32 4 2 C1.36095629 3.41377341 -1.07120629 4.37240135 -4 5 C-3.34 4.01 -2.68 3.02 -2 2 C-1.34 2 -0.68 2 0 2 C0 1.34 0 0.68 0 0 Z " fill="#1977AE" transform="translate(40,29)"/>
<path d="M0 0 C2.125 0.9375 2.125 0.9375 4 2 C3.67 2.66 3.34 3.32 3 4 C1.35 3.67 -0.3 3.34 -2 3 C-2 2.34 -2 1.68 -2 1 C-1.34 0.67 -0.68 0.34 0 0 Z " fill="#040203" transform="translate(149,17)"/>
</svg>
